Coordinates
version=1
nRows=34
nColumns=38
inDegrees=no

Units are S.I. units (second, meters, Newtons, ...)
If the header above contains a line with 'inDegrees', this indicates whether rotational values are in degrees (yes) or radians (no).

endheader
time	pelvis_tilt	pelvis_list	pelvis_rotation	pelvis_tx	pelvis_ty	pelvis_tz	hip_flexion_r	hip_adduction_r	hip_rotation_r	knee_angle_r	ankle_angle_r	subtalar_angle_r	mtp_angle_r	hip_flexion_l	hip_adduction_l	hip_rotation_l	knee_angle_l	ankle_angle_l	subtalar_angle_l	mtp_angle_l	lumbar_extension	lumbar_bending	lumbar_rotation	arm_flex_r	arm_add_r	arm_rot_r	elbow_flex_r	pro_sup_r	wrist_flex_r	wrist_dev_r	arm_flex_l	arm_add_l	arm_rot_l	elbow_flex_l	pro_sup_l	wrist_flex_l	wrist_dev_l
35	-0.0519498	1.28373	1.66868	0.721161	0.28627	0.945829	0.893079	-0.0806157	-0.0953208	1.00641	-0.294379	0	0	0.786258	-0.216845	-0.207301	0.967707	-0.177085	0	0	-0.490673	0.173952	7.28671e-05	0.866075	-0.359857	1.5708	0.287318	0.0984955	0	0	0.00144415	-0.133387	-0.13412	0.728181	1.5708	0	0
35.01	-0.0534833	1.27835	1.67637	0.721056	0.284166	0.943506	0.907624	-0.0865176	-0.0963498	1.01713	-0.296959	0	0	0.802252	-0.214674	-0.203629	0.978553	-0.180967	0	0	-0.500212	0.178135	0.00244392	0.87923	-0.363345	1.5708	0.283837	0.10163	0	0	0.00593777	-0.132348	-0.129654	0.727024	1.5708	0	0
35.02	-0.0544921	1.27276	1.68336	0.720961	0.282128	0.941155	0.922024	-0.0920911	-0.0977367	1.0272	-0.299333	0	0	0.818366	-0.212439	-0.199471	0.989338	-0.184646	0	0	-0.508993	0.182355	0.00516168	0.892248	-0.366818	1.5708	0.280533	0.107549	0	0	0.00983191	-0.131152	-0.125423	0.726322	1.5708	0	0
35.03	-0.0553086	1.26677	1.68969	0.720908	0.280158	0.93876	0.936348	-0.0969266	-0.0984339	1.03625	-0.301475	0	0	0.834888	-0.210212	-0.194886	1.00008	-0.188347	0	0	-0.516886	0.186269	0.00811974	0.9051	-0.370055	1.5708	0.27727	0.114414	0	0	0.0129804	-0.129948	-0.121472	0.726029	1.5708	0	0
35.04	-0.0558812	1.26056	1.69483	0.72094	0.278314	0.936292	0.950594	-0.100548	-0.0979032	1.04437	-0.303342	0	0	0.85156	-0.208422	-0.190044	1.01112	-0.191932	0	0	-0.52399	0.189684	0.0113264	0.917706	-0.372891	1.5708	0.274334	0.121124	0	0	0.0149848	-0.128862	-0.117976	0.726222	1.5708	0	0
35.05	-0.0557754	1.25407	1.69884	0.721016	0.276569	0.933754	0.965044	-0.103371	-0.0968939	1.0525	-0.304455	0	0	0.868255	-0.207385	-0.185904	1.02222	-0.195392	0	0	-0.530143	0.192851	0.0144022	0.929835	-0.375224	1.5708	0.271692	0.127154	0	0	0.0159214	-0.127698	-0.115551	0.727002	1.5708	0	0
35.06	-0.0551855	1.24681	1.70216	0.721103	0.274887	0.931133	0.980352	-0.105839	-0.0956722	1.06147	-0.304668	0	0	0.885356	-0.206975	-0.18306	1.03282	-0.19939	0	0	-0.534842	0.195702	0.0169503	0.941385	-0.376797	1.5708	0.268876	0.134247	0	0	0.0158535	-0.126548	-0.114096	0.728084	1.5708	0	0
35.07	-0.0542704	1.23998	1.7045	0.721264	0.273323	0.928557	0.995038	-0.107549	-0.0940751	1.07054	-0.304648	0	0	0.901686	-0.207353	-0.180813	1.04332	-0.203434	0	0	-0.53948	0.198143	0.0195573	0.952539	-0.377642	1.5708	0.265668	0.142518	0	0	0.0151455	-0.125508	-0.113221	0.729344	1.5708	0	0
35.08	-0.0537031	1.23369	1.70658	0.721465	0.271807	0.926124	1.00864	-0.108565	-0.0915674	1.07856	-0.304808	0	0	0.917173	-0.208072	-0.178721	1.05352	-0.207728	0	0	-0.544386	0.200012	0.0222379	0.96366	-0.378136	1.5708	0.262415	0.152941	0	0	0.0143918	-0.124644	-0.112458	0.730311	1.5708	0	0
35.09	-0.0538012	1.22848	1.70888	0.721709	0.270361	0.923948	1.02066	-0.10944	-0.0888634	1.08589	-0.305422	0	0	0.930688	-0.209182	-0.177424	1.06263	-0.211932	0	0	-0.550258	0.201282	0.0247648	0.974991	-0.378182	1.5708	0.259111	0.166033	0	0	0.0141439	-0.124045	-0.111502	0.729994	1.5708	0	0
35.1	-0.0540749	1.22357	1.71102	0.721961	0.268998	0.921878	1.03235	-0.11037	-0.0863431	1.0932	-0.306501	0	0	0.943532	-0.210424	-0.17646	1.07142	-0.216519	0	0	-0.556121	0.202154	0.0265476	0.986376	-0.377344	1.5708	0.255735	0.184372	0	0	0.0138177	-0.123692	-0.110647	0.728625	1.5708	0	0
35.11	-0.0559345	1.22084	1.71451	0.722241	0.267773	0.920148	1.04121	-0.11173	-0.0844493	1.09976	-0.307464	0	0	0.953114	-0.211366	-0.175905	1.07913	-0.219378	0	0	-0.563893	0.202336	0.0285594	0.997812	-0.376911	1.5708	0.25305	0.199083	0	0	0.0140597	-0.123185	-0.110373	0.726865	1.5708	0	0
35.12	-0.0579952	1.21742	1.71833	0.722513	0.266567	0.918409	1.05087	-0.113654	-0.0830264	1.10629	-0.309109	0	0	0.963513	-0.211986	-0.175289	1.08706	-0.223437	0	0	-0.570566	0.202547	0.0288107	1.01024	-0.375083	1.5708	0.250325	0.19707	0	0	0.0137159	-0.123301	-0.109656	0.72437	1.5708	0	0
35.13	-0.0589244	1.20928	1.72146	0.722771	0.265454	0.916278	1.06523	-0.116141	-0.0813578	1.11219	-0.312555	0	0	0.978745	-0.211529	-0.173752	1.09455	-0.229483	0	0	-0.572333	0.200536	0.0300348	0.984634	-0.368355	1.27288	0.241581	0.550199	0	0	0.0134134	-0.123576	-0.109698	0.721598	1.5708	0	0
35.14	-0.0607371	1.20601	1.72494	0.722946	0.264369	0.914473	1.07405	-0.118348	-0.0808192	1.11817	-0.313783	0	0	0.988996	-0.212341	-0.172974	1.10294	-0.235351	0	0	-0.576599	0.202976	0.0250893	1.02849	-0.363146	1.5708	0.234629	0.30089	0	0	0.0120043	-0.123543	-0.110073	0.714087	1.5708	0	0
35.15	-0.0626597	1.20276	1.7282	0.723084	0.263549	0.91275	1.08217	-0.120626	-0.0804316	1.12362	-0.314465	0	0	0.998913	-0.21352	-0.172912	1.11166	-0.240159	0	0	-0.581182	0.203067	0.024344	1.03762	-0.35936	1.5708	0.230539	0.329707	0	0	0.0127251	-0.123296	-0.109155	0.706103	1.5708	0	0
35.16	-0.0631121	1.19976	1.73022	0.723169	0.262832	0.911073	1.08939	-0.122766	-0.0803256	1.12821	-0.315129	0	0	1.00833	-0.214503	-0.172311	1.1196	-0.244495	0	0	-0.585369	0.20385	0.0244079	1.04575	-0.356467	1.5708	0.227484	0.355431	0	0	0.014604	-0.122492	-0.107697	0.69584	1.5708	0	0
35.17	-0.0619661	1.19698	1.73061	0.723246	0.262169	0.909465	1.09633	-0.124187	-0.0802214	1.13301	-0.315477	0	0	1.0173	-0.215462	-0.170988	1.12681	-0.247643	0	0	-0.589641	0.205004	0.0254385	1.05331	-0.354544	1.5708	0.225831	0.372651	0	0	0.0170561	-0.121389	-0.105987	0.68487	1.5708	0	0
35.18	-0.0597522	1.19366	1.72978	0.7233	0.261523	0.907829	1.10397	-0.125106	-0.0799829	1.13807	-0.315755	0	0	1.02704	-0.216503	-0.169113	1.13421	-0.250829	0	0	-0.59291	0.206328	0.0270092	1.06001	-0.353288	1.5708	0.224987	0.387794	0	0	0.0199527	-0.120215	-0.103578	0.672709	1.5708	0	0
35.19	-0.0578921	1.19069	1.72899	0.723293	0.260931	0.906226	1.11115	-0.126028	-0.0796823	1.14294	-0.316236	0	0	1.03618	-0.217513	-0.167498	1.14152	-0.253723	0	0	-0.59618	0.207373	0.0287599	1.06612	-0.352639	1.5708	0.224971	0.401557	0	0	0.0227546	-0.118928	-0.101375	0.660793	1.5708	0	0
35.2	-0.0559756	1.18784	1.72822	0.723241	0.260389	0.904648	1.11795	-0.127076	-0.0794141	1.14741	-0.317158	0	0	1.04491	-0.218058	-0.165601	1.14833	-0.256185	0	0	-0.5991	0.208379	0.0300818	1.07178	-0.35198	1.5708	0.225382	0.414478	0	0	0.0251438	-0.117733	-0.0994528	0.649398	1.5708	0	0
35.21	-0.0545677	1.18511	1.72803	0.723165	0.259897	0.90313	1.12461	-0.128509	-0.0793	1.15165	-0.318465	0	0	1.05306	-0.217798	-0.16345	1.15454	-0.257929	0	0	-0.601568	0.20924	0.0306643	1.07708	-0.350915	1.5708	0.225811	0.425772	0	0	0.0271752	-0.116657	-0.0979449	0.638305	1.5708	0	0
35.22	-0.0540106	1.18249	1.72804	0.723151	0.25954	0.901682	1.13103	-0.12952	-0.0787115	1.1557	-0.319769	0	0	1.06039	-0.217691	-0.16202	1.16045	-0.259035	0	0	-0.603703	0.20936	0.0308472	1.08198	-0.349434	1.5708	0.226809	0.435075	0	0	0.0288259	-0.115687	-0.0970019	0.627239	1.5708	0	0
35.23	-0.0537501	1.17956	1.72751	0.723219	0.259316	0.900248	1.13739	-0.12957	-0.0774684	1.15978	-0.320238	0	0	1.06763	-0.218416	-0.161299	1.16653	-0.259951	0	0	-0.605145	0.208412	0.0308143	1.08655	-0.347932	1.5708	0.228938	0.439019	0	0	0.0297661	-0.114882	-0.0969471	0.616823	1.5708	0	0
35.24	-0.0527851	1.17627	1.72741	0.723105	0.259032	0.898829	1.1439	-0.130456	-0.0769065	1.16357	-0.320387	0	0	1.07567	-0.217509	-0.158707	1.17245	-0.26084	0	0	-0.605322	0.208363	0.0293979	1.09102	-0.346447	1.5708	0.231557	0.435511	0	0	0.0303613	-0.114301	-0.0964107	0.606746	1.5708	0	0
35.25	-0.0516128	1.17287	1.72754	0.72291	0.25874	0.897477	1.15037	-0.131444	-0.0764471	1.16694	-0.320364	0	0	1.08369	-0.215752	-0.155569	1.17777	-0.261762	0	0	-0.604633	0.208565	0.0277114	1.09477	-0.345161	1.5708	0.233531	0.423017	0	0	0.031249	-0.11424	-0.093871	0.596369	1.5708	0	0
35.26	-0.0503127	1.17054	1.72725	0.722741	0.258526	0.896319	1.15539	-0.131682	-0.0757399	1.16994	-0.320356	0	0	1.09022	-0.214643	-0.153114	1.18269	-0.26272	0	0	-0.604893	0.208577	0.0267116	1.09791	-0.344557	1.5708	0.235336	0.407724	0	0	0.0325747	-0.114965	-0.0884237	0.586113	1.5708	0	0
35.27	-0.0491231	1.16871	1.7265	0.722571	0.258393	0.895273	1.15981	-0.131283	-0.0746753	1.17303	-0.320603	0	0	1.09585	-0.214353	-0.151587	1.18753	-0.263699	0	0	-0.60566	0.2083	0.0266553	1.10017	-0.34492	1.5708	0.237247	0.38769	0	0	0.0340172	-0.117378	-0.0764911	0.57659	1.5708	0	0
35.28	-0.0478948	1.16732	1.72563	0.722334	0.258292	0.894342	1.1637	-0.130797	-0.07367	1.17609	-0.321085	0	0	1.10088	-0.214237	-0.150274	1.19229	-0.264661	0	0	-0.607085	0.208327	0.0271292	1.10184	-0.346212	1.5708	0.239602	0.364227	0	0	0.0355585	-0.121979	-0.0548771	0.56837	1.55284	0	0
35.29	-0.0466239	1.16546	1.72499	0.722044	0.258147	0.893463	1.16802	-0.130493	-0.0726276	1.17887	-0.321713	0	0	1.10616	-0.213415	-0.148463	1.19637	-0.265574	0	0	-0.607937	0.208629	0.0284795	1.1028	-0.349132	1.5708	0.242544	0.332672	0	0	0.0383806	-0.130044	-0.0180106	0.560115	1.51992	0	0
35.3	-0.045927	1.16358	1.72488	0.721653	0.258056	0.892683	1.17197	-0.13048	-0.0715248	1.18119	-0.321965	0	0	1.1109	-0.212294	-0.146971	1.20008	-0.266077	0	0	-0.609467	0.208821	0.0295897	1.10343	-0.351872	1.5708	0.245247	0.308725	0	0	0.0412786	-0.139868	0.0247384	0.553795	1.48615	0	0
35.31	-0.0516344	1.16957	1.73034	0.721416	0.257828	0.892493	1.16807	-0.130959	-0.0693319	1.18461	-0.321007	0	0	1.10667	-0.211253	-0.147343	1.20407	-0.265887	0	0	-0.620706	0.209091	0.0276121	1.1087	-0.35125	1.5708	0.248875	0.271948	0	0	0.0759888	-0.272424	0.511569	0.593174	1.0639	0	0
35.32	-0.0549129	1.17102	1.73373	0.720924	0.257857	0.892166	1.16787	-0.131751	-0.0675529	1.18646	-0.321056	0	0	1.10644	-0.209203	-0.146653	1.20671	-0.265443	0	0	-0.628373	0.206515	0.0276947	1.11164	-0.355294	1.5708	0.257328	0.231082	0	0	0.0823774	-0.292667	0.574679	0.607774	1.02277	0	0
35.33	-0.0587364	1.17288	1.73771	0.720423	0.257895	0.891957	1.16699	-0.132503	-0.0653946	1.18802	-0.320678	0	0	1.10521	-0.207246	-0.14671	1.20856	-0.26531	0	0	-0.634663	0.204518	0.0306825	1.1125	-0.361103	1.5708	0.264181	0.203824	0	0	0.090992	-0.306053	0.627148	0.615953	0.982461	0	0
